<svg width="406" height="434" viewBox="0 0 406 434" fill="none" xmlns="http://www.w3.org/2000/svg">
<g clip-path="url(#clip0_8_2)">
<path d="M369.274 0H36.726C16.443 0 0 17.577 0 39.2588V394.74C0 416.423 16.443 434 36.726 434H369.273C389.557 434 406 416.423 406 394.74V39.2588C406 17.577 389.557 0 369.274 0ZM125.634 374.744C125.634 381.054 120.849 386.169 114.946 386.169H69.4504C63.5475 386.169 58.7627 381.054 58.7627 374.744V170.877C58.7627 164.567 63.5475 159.452 69.4504 159.452H114.946C120.849 159.452 125.634 164.567 125.634 170.877V374.744ZM92.1981 140.234C68.3281 140.234 48.9772 119.549 48.9772 94.0326C48.9772 68.5163 68.3281 47.8309 92.1981 47.8309C116.068 47.8309 135.419 68.5163 135.419 94.0326C135.419 119.549 116.069 140.234 92.1981 140.234ZM363.391 375.664C363.391 381.466 358.991 386.169 353.564 386.169H304.744C299.318 386.169 294.918 381.466 294.918 375.664V280.039C294.918 265.774 298.832 217.528 260.043 217.528C229.955 217.528 223.853 250.551 222.627 265.371V375.664C222.627 381.466 218.228 386.169 212.8 386.169H165.583C160.156 386.169 155.756 381.466 155.756 375.664V169.956C155.756 164.155 160.156 159.452 165.583 159.452H212.8C218.227 159.452 222.627 164.155 222.627 169.956V187.742C233.784 169.845 250.364 156.031 285.666 156.031C363.839 156.031 363.391 234.101 363.391 276.997V375.664Z" fill="white"/>
</g>
<defs>
<clipPath id="clip0_8_2">
<rect width="406" height="434" fill="white"/>
</clipPath>
</defs>
</svg>
